<?xml version="1.0" encoding="utf-8"?>
<!-- Generator: Adobe Illustrator 22.1.0, SVG Export Plug-In . SVG Version: 6.00 Build 0)  -->
<svg version="1.1" id="Calque_1" xmlns="http://www.w3.org/2000/svg" xmlns:xlink="http://www.w3.org/1999/xlink" x="0px" y="0px"
	 viewBox="0 0 90.1 85" style="enable-background:new 0 0 90.1 85;" xml:space="preserve">
<style type="text/css">
	.st0{fill:url(#SVGID_1_);}
	.st1{fill:url(#SVGID_2_);}
	.st2{fill:url(#SVGID_3_);}
</style>
<title>logo</title>
<linearGradient id="SVGID_1_" gradientUnits="userSpaceOnUse" x1="16.9103" y1="51.1819" x2="75.53" y2="51.1819" gradientTransform="matrix(1 0 0 -1 0 85.8898)">
	<stop  offset="0" style="stop-color:#FFFFFF"/>
	<stop  offset="1" style="stop-color:#E6E6E6"/>
</linearGradient>
<path class="st0" d="M75.5,29.6c-0.5-0.3-1.1-0.6-1.7-0.9c-2.4-1.4-5.1-2.2-7.8-2.3c-1-0.1-2.6-0.1-4.6-0.1c0-0.1,0-0.2,0-0.2
	c-1.9-8-9.9-13-18-11.1c-5.8,1.4-10.2,6-11.3,11.9c-0.2,0.9-0.2,1.7-0.2,2.6c-0.1,1.5,0.1,2.9,0.4,4.4c1,2.4,2.1,4.7,3.4,7
	c3.8,7.3,9.5,17.5,9.5,17.5l0.3,0.5c-1.9,2.6-4,5.1-6.1,7.4c-1.2,0.9-2.4,1.7-3.8,2.2c-0.3,0.2-0.7,0.3-1,0.4l-0.1-0.2
	c0,0-8.9-16.5-13.6-26.1c-1.1-2.3-2-4.1-2.5-5.3c-1.1-2.5-1.6-5.3-1.5-8.1v-0.2c0.4-16.2,13.8-29,29.9-28.7
	c15.8,0.3,28.4,13.1,28.7,28.9V29.6z"/>
<linearGradient id="SVGID_2_" gradientUnits="userSpaceOnUse" x1="31.8679" y1="30.6554" x2="90.0888" y2="30.6554" gradientTransform="matrix(1 0 0 -1 0 85.8898)">
	<stop  offset="0" style="stop-color:#1AD0FF"/>
	<stop  offset="1" style="stop-color:#00E4FF"/>
</linearGradient>
<path class="st1" d="M87,68c-7.2,14.5-24.8,20.3-39.3,13.1c0,0-0.7-0.4-1.8-1.4c0.9-0.7,1.7-1.5,2.5-2.3c1.3-1.4,3.7-4.4,6.6-8.1
	c0.6,0.2,1.3,0.4,1.9,0.6c8,1.9,16.1-3.1,17.9-11.1C76.5,52,73.2,45.1,67,42c-1.3-0.7-2.7-1.3-4.1-1.6c-1.1-0.1-2.1-0.2-3.2-0.2
	c-6.9-0.1-22.1,0.5-24.1,0.6c-1.3-2.3-2.4-4.6-3.4-7c-0.3-1.4-0.5-2.9-0.4-4.4c0-0.9,0.1-1.8,0.2-2.6c0,0,19.2-0.7,29.3-0.6
	c1.9,0,3.5,0.1,4.6,0.1c2.8,0.1,5.5,0.9,7.9,2.3c0.6,0.3,1.1,0.6,1.7,0.9C88.9,37.4,93.9,54.2,87,68z"/>
<linearGradient id="SVGID_3_" gradientUnits="userSpaceOnUse" x1="1.563321e-02" y1="28.8751" x2="72.37" y2="28.8751" gradientTransform="matrix(1 0 0 -1 0 85.8898)">
	<stop  offset="0" style="stop-color:#1A1A1A"/>
	<stop  offset="1" style="stop-color:#4D4D4D"/>
</linearGradient>
<path class="st2" d="M72.4,46.5c0,0-10,13.4-17.4,22.8c-2.9,3.7-5.4,6.8-6.6,8.2c-0.8,0.8-1.6,1.6-2.5,2.3l0,0
	c-1.3,1-2.7,1.9-4.2,2.4C27,89,9.6,82.7,2.8,68S2.3,35.9,16.9,29.1v0.2c-0.2,2.8,0.3,5.5,1.5,8.1c0.5,1.2,1.4,3,2.5,5.3l-0.9,0.7
	c-6.5,5.1-7.6,14.5-2.6,21c4.1,5.2,11,7.1,17.2,4.7c0.3-0.1,0.7-0.3,1-0.4c1.4-0.5,2.6-1.3,3.8-2.2c2.2-2.4,4.2-4.9,6.1-7.4
	C51,51.8,58.4,42,59.7,40.2c1.1,0,2.1,0,3.2,0.2c1.4,0.3,2.8,0.9,4.1,1.6C69.1,43,71,44.6,72.4,46.5z"/>
</svg>
