<svg id="Calque_1" data-name="Calque 1" xmlns="http://www.w3.org/2000/svg" xmlns:xlink="http://www.w3.org/1999/xlink" viewBox="0 0 90.1 84.96"><defs><style>.cls-1{fill:url(#Dégradé_sans_nom_9);}.cls-2{fill:url(#Dégradé_sans_nom_11);}.cls-3{fill:url(#Dégradé_sans_nom_4);}</style><linearGradient id="Dégradé_sans_nom_9" x1="16.89" y1="34.49" x2="75.53" y2="34.49" gradientUnits="userSpaceOnUse"><stop offset="0" stop-color="#fff"/><stop offset="1" stop-color="#e6e6e6"/></linearGradient><linearGradient id="Dégradé_sans_nom_11" x1="31.87" y1="55.24" x2="90.1" y2="55.24" gradientUnits="userSpaceOnUse"><stop offset="0" stop-color="#1ad0ff"/><stop offset="1" stop-color="#00e4ff"/></linearGradient><linearGradient id="Dégradé_sans_nom_4" y1="57.02" x2="72.37" y2="57.02" gradientUnits="userSpaceOnUse"><stop offset="0" stop-color="#1a1a1a"/><stop offset="1" stop-color="#4d4d4d"/></linearGradient></defs><title>logo</title><path class="cls-1" d="M75.53,29.6c-.54-.32-1.11-.62-1.68-.9A17.37,17.37,0,0,0,66,26.41c-1-.08-2.64-.12-4.56-.14,0-.13,0-.2,0-.2a14.93,14.93,0,0,0-29.23.8,14.22,14.22,0,0,0-.23,2.63,15.45,15.45,0,0,0,.39,4.37,65.72,65.72,0,0,0,3.37,7c3.82,7.29,9.5,17.5,9.5,17.5l.3.55a93.56,93.56,0,0,1-6.13,7.44,15.21,15.21,0,0,1-3.8,2.21c-.33.15-.65.29-1,.42l-.12-.24S25.56,52.2,20.87,42.65c-1.11-2.25-2-4.12-2.46-5.28a17.35,17.35,0,0,1-1.47-8.07v-.21a29.3,29.3,0,0,1,58.59.21Z"/><path class="cls-2" d="M87,68A29.28,29.28,0,0,1,47.75,81.14s-.65-.42-1.85-1.4a22.82,22.82,0,0,0,2.48-2.29C49.64,76.08,52.12,73,55,69.3a18,18,0,0,0,1.94.6A14.93,14.93,0,0,0,67,42a15.71,15.71,0,0,0-4.09-1.6,20.26,20.26,0,0,0-3.19-.15c-6.89-.06-22.1.53-24.07.61a65.72,65.72,0,0,1-3.37-7,15.45,15.45,0,0,1-.39-4.37,14.22,14.22,0,0,1,.23-2.63s19.23-.68,29.28-.6c1.92,0,3.51.06,4.56.14a17.37,17.37,0,0,1,7.88,2.29c.57.28,1.14.58,1.68.9A29.3,29.3,0,0,1,87,68Z"/><path class="cls-3" d="M72.37,46.49S62.34,59.92,55,69.3c-2.89,3.7-5.37,6.78-6.63,8.15a22.82,22.82,0,0,1-2.48,2.29h0a14.4,14.4,0,0,1-4.2,2.45,29.29,29.29,0,1,1-24.75-53.1v.21a17.35,17.35,0,0,0,1.47,8.07c.47,1.16,1.35,3,2.46,5.28l-.92.67A14.93,14.93,0,0,0,34.55,69c.33-.13.65-.27,1-.42a15.21,15.21,0,0,0,3.8-2.21,93.56,93.56,0,0,0,6.13-7.44C51,51.84,58.38,42,59.73,40.25a20.26,20.26,0,0,1,3.19.15A15.71,15.71,0,0,1,67,42,14.91,14.91,0,0,1,72.37,46.49Z"/></svg>